<?xml version="1.0" standalone="no"?>
<!DOCTYPE svg PUBLIC "-//W3C//DTD SVG 20010904//EN"
 "http://www.w3.org/TR/2001/REC-SVG-20010904/DTD/svg10.dtd">
<svg version="1.0" xmlns="http://www.w3.org/2000/svg"
 width="1920.000000pt" height="1014.000000pt" viewBox="0 0 1920.000000 1014.000000"
 preserveAspectRatio="xMidYMid meet">

<g transform="translate(0.000000,1014.000000) scale(0.100000,-0.100000)"
fill="#000000" stroke="none">
<path d="M4 6078 c2 -2235 7 -4092 11 -4126 6 -58 8 -62 21 -44 7 11 15 34 16
51 2 24 6 30 19 26 26 -9 209 -12 209 -5 0 16 100 19 127 5 16 -8 33 -15 39
-15 6 0 25 -13 44 -30 18 -16 42 -32 52 -36 10 -3 18 -11 18 -19 0 -7 3 -21 7
-31 4 -11 2 -15 -4 -11 -6 4 -17 -1 -26 -11 -14 -16 -13 -17 14 -19 20 -2 29
2 29 12 0 8 9 15 20 15 11 0 20 4 20 9 0 5 14 11 30 15 17 3 30 12 30 20 0 16
28 42 36 33 4 -3 6 -19 6 -34 0 -15 4 -35 9 -44 5 -10 0 -29 -16 -55 -14 -21
-25 -54 -25 -73 0 -26 -3 -31 -13 -23 -10 8 -13 6 -14 -9 -1 -10 1 -19 5 -19
12 0 9 -44 -2 -52 -6 -4 -21 -8 -32 -8 -35 0 -43 -19 -33 -74 5 -27 15 -62 23
-77 8 -16 10 -29 6 -29 -5 0 -7 -6 -4 -14 3 -7 -6 -27 -21 -42 -14 -16 -36
-41 -50 -57 -14 -15 -25 -39 -25 -53 0 -15 -10 -43 -22 -63 l-23 -36 -5 26
c-4 23 -8 25 -28 18 -12 -5 -22 -14 -22 -20 0 -7 -3 -9 -6 -6 -4 3 -16 2 -26
-4 -14 -8 -23 -8 -31 0 -14 14 -60 14 -74 0 -5 -5 -32 -9 -59 -7 -42 3 -49 6
-52 26 -5 33 -20 27 -24 -10 -4 -40 -29 -45 -39 -8 -4 14 -7 20 -8 13 -1 -6
-5 -23 -11 -38 -8 -22 -12 -24 -29 -13 -19 12 -20 22 -17 195 2 100 7 186 10
192 4 5 -3 19 -15 30 -18 16 -20 23 -10 35 7 8 9 29 5 54 -4 25 -2 42 5 46 16
10 14 46 -3 46 -8 0 -17 6 -19 13 -3 6 -6 -133 -6 -311 -1 -187 -5 -321 -10
-318 -5 4 -10 -229 -10 -554 l-2 -560 6032 0 6032 0 -6 48 c-4 38 -1 56 14 81
13 21 19 50 19 86 0 48 2 54 18 48 9 -4 20 -10 23 -15 3 -5 53 -11 110 -13 58
-3 120 -10 138 -15 25 -7 37 -6 48 5 9 10 29 13 63 10 56 -4 73 9 66 52 -2 15
-5 35 -5 44 -1 9 -10 19 -20 22 -11 3 -27 22 -36 43 -9 21 -23 46 -31 56 -17
18 -11 38 12 38 17 0 19 43 2 70 -7 10 -9 22 -6 26 7 6 53 -38 78 -76 25 -37
94 -125 102 -128 4 -2 10 -20 14 -40 4 -20 10 -41 14 -47 13 -17 32 -106 43
-202 l11 -93 1510 2 c831 1 1484 4 1451 7 l-60 6 40 7 c22 4 66 8 98 8 32 0
56 4 53 9 -7 11 104 19 149 11 18 -3 -4 -7 -55 -11 l-85 -5 112 -2 c124 -2
174 -13 108 -23 -22 -3 82 -6 230 -6 149 0 249 2 223 4 -58 5 -64 23 -8 23 25
0 40 5 40 13 0 31 198 74 215 47 3 -5 28 -10 54 -10 31 0 53 -5 61 -15 7 -8 9
-15 4 -15 -5 0 -2 -5 6 -10 8 -5 38 -10 66 -10 28 0 80 -3 115 -7 63 -8 62 -8
-51 -14 -63 -3 295 -5 795 -5 501 0 871 2 823 3 -143 6 -103 23 52 23 113 0
140 3 140 14 0 21 52 27 192 21 124 -5 127 -4 134 18 7 21 7 21 15 2 4 -11 8
-35 8 -52 1 -22 6 -33 16 -33 13 0 15 570 15 5070 l0 5070 -9600 0 -9600 0 4
-4062z m4546 3979 c0 -8 -7 -14 -15 -14 -8 0 -15 6 -15 14 0 7 7 13 15 13 8 0
15 -6 15 -13z m-592 -791 c17 -6 22 -15 21 -39 -1 -18 -3 -24 -6 -14 -4 17 -9
20 -38 20 -43 0 -56 -5 -80 -28 l-25 -26 0 24 c0 37 54 77 95 72 6 -1 20 -5
33 -9z m131 -108 c11 -18 11 -22 -3 -30 -9 -5 -14 -13 -11 -19 4 -5 -1 -9 -9
-9 -9 0 -16 7 -16 15 0 7 -8 18 -17 24 -14 8 -15 12 -4 25 19 22 44 20 60 -6z
m-357 -70 c4 -7 8 -21 8 -30 0 -15 -3 -16 -34 -3 -22 9 -37 11 -41 5 -3 -5
-15 -15 -26 -20 -26 -14 -36 11 -15 37 20 22 95 30 108 11z m15427 -300 l-1
-73 -9 55 c-7 50 -4 90 7 90 2 0 3 -33 3 -72z m-15754 -18 c0 -8 -6 -14 -13
-12 -8 1 -29 -7 -48 -19 -29 -17 -35 -18 -40 -6 -10 26 27 56 66 54 24 -1 35
-7 35 -17z m192 -277 c2 -6 -8 -13 -22 -15 -16 -4 -25 -1 -25 8 0 22 40 29 47
7z m-517 -1173 c0 -10 -4 -22 -10 -25 -6 -4 -10 7 -10 25 0 18 4 29 10 25 6
-3 10 -15 10 -25z m29 -336 c23 -30 27 -44 10 -44 -15 0 -49 39 -49 57 0 21
17 15 39 -13z m-61 -42 c2 -12 -1 -22 -6 -22 -15 0 -34 28 -27 40 10 17 30 6
33 -18z m19 -84 c-3 -7 -5 -2 -5 12 0 14 2 19 5 13 2 -7 2 -19 0 -25z m-27
-69 c0 -12 -4 -17 -11 -13 -11 6 -7 -26 8 -80 4 -15 2 -18 -13 -12 -11 4 -31
10 -46 13 l-27 5 27 54 c28 55 62 74 62 33z m6885 -164 c0 -5 -10 -11 -22 -13
-16 -2 -23 2 -23 13 0 11 7 15 23 13 12 -2 22 -7 22 -13z m-99 -40 c3 -8 4
-22 2 -32 -2 -13 -9 -6 -24 24 -20 40 -20 42 -2 32 11 -6 22 -17 24 -24z m524
20 c0 -8 -4 -15 -10 -15 -5 0 -10 7 -10 15 0 8 5 15 10 15 6 0 10 -7 10 -15z
m-852 -91 c2 -28 2 -28 -13 -10 -18 24 -20 49 -2 44 6 -3 13 -18 15 -34z m92
0 c0 -8 -9 -14 -20 -14 -18 0 -19 3 -10 20 12 22 30 18 30 -6z m31 -31 c13
-16 12 -17 -3 -4 -10 7 -18 15 -18 17 0 8 8 3 21 -13z m1084 -22 c3 -5 1 -12
-5 -16 -5 -3 -10 1 -10 9 0 18 6 21 15 7z m-1735 -551 c0 -5 -7 -10 -15 -10
-8 0 -15 5 -15 10 0 6 7 10 15 10 8 0 15 -4 15 -10z m2745 -661 c9 -14 -34
-59 -57 -59 -25 0 -23 9 9 42 29 30 38 34 48 17z m-9823 -654 c-6 -34 -12 -32
-12 6 0 16 4 28 9 25 4 -3 6 -17 3 -31z m8 -115 c0 -11 -4 -20 -10 -20 -5 0
-10 9 -10 20 0 11 5 20 10 20 6 0 10 -9 10 -20z m-34 -110 c8 0 14 -10 14 -24
0 -21 5 -24 38 -24 20 0 45 7 54 15 20 18 53 4 63 -28 8 -25 37 -36 93 -34 37
0 42 -2 39 -17 -3 -11 0 -18 8 -18 8 0 18 -7 23 -17 6 -9 16 -14 25 -10 10 4
17 -1 20 -14 3 -11 14 -19 26 -19 18 0 21 -6 22 -42 3 -82 0 -100 -15 -117 -9
-10 -16 -25 -16 -34 0 -9 -4 -19 -10 -22 -5 -3 -10 -19 -10 -34 0 -20 -7 -31
-27 -41 -16 -8 -35 -22 -43 -33 -19 -22 -50 -13 -50 15 0 12 -9 22 -21 25 -16
4 -17 8 -7 14 9 6 6 9 -12 10 -14 0 -19 3 -12 6 6 2 12 15 12 28 0 20 -5 23
-37 23 -21 0 -42 -5 -46 -11 -6 -9 -10 -8 -14 2 -5 11 -7 11 -14 0 -7 -11 -12
-12 -28 -2 -17 11 -20 9 -24 -10 -4 -18 -4 -18 -6 6 -1 24 -5 27 -36 27 -26 0
-35 -4 -36 -17 0 -11 -3 -13 -6 -5 -2 6 -11 12 -19 12 -10 0 -14 13 -14 44 0
43 -19 74 -28 47 -4 -11 -6 -11 -13 0 -12 20 -43 -2 -44 -29 0 -26 -20 -30
-20 -4 -1 22 -13 42 -27 42 -5 0 -7 -8 -4 -17 11 -28 -17 -35 -39 -9 -11 12
-33 29 -50 37 -21 10 -29 21 -27 34 4 22 42 56 54 49 3 -2 8 10 10 28 2 25 8
34 25 36 21 3 48 53 36 66 -4 3 4 6 16 6 12 0 20 -4 16 -10 -9 -15 6 -60 21
-60 9 0 14 12 14 34 0 32 19 63 21 34 0 -9 2 -8 6 2 10 27 57 71 71 65 7 -3
20 -5 28 -5z m11671 -72 c6 -7 12 -20 16 -29 4 -12 0 -15 -19 -11 -17 3 -24
11 -24 28 0 26 12 31 27 12z m-11457 -414 c0 -2 -7 -4 -15 -4 -8 0 -15 4 -15
10 0 5 7 7 15 4 8 -4 15 -8 15 -10z m2116 -517 c4 -4 16 -7 26 -7 10 0 18 -5
18 -10 0 -6 8 -14 18 -17 37 -14 200 -117 212 -134 3 -4 19 -11 35 -15 17 -4
47 -15 67 -25 20 -10 72 -30 114 -45 43 -14 87 -32 96 -39 14 -9 31 -10 69 -2
61 12 159 -6 159 -29 0 -8 -5 -14 -11 -14 -5 0 -8 4 -5 9 9 13 -19 21 -76 21
-41 0 -48 -2 -39 -13 16 -20 8 -23 -52 -21 l-54 1 7 -37 c5 -27 3 -37 -7 -37
-7 0 -13 4 -13 9 0 4 -9 8 -20 8 -18 0 -19 -3 -8 -20 11 -17 21 -19 103 -15
109 4 103 3 85 15 -12 8 -11 10 7 10 12 0 29 -3 38 -6 13 -5 14 -8 3 -15 -9
-6 -5 -9 14 -9 17 0 34 -10 47 -26 12 -15 21 -23 21 -18 0 5 4 3 9 -4 4 -7 6
-30 4 -52 -3 -30 1 -44 22 -66 14 -15 25 -24 25 -20 0 4 7 0 16 -8 21 -22 46
-20 74 4 27 24 25 23 53 8 12 -7 32 -11 44 -9 11 1 24 -2 27 -8 4 -6 13 -8 21
-4 9 3 16 -1 17 -11 0 -9 1 -20 2 -26 1 -5 -9 -22 -21 -37 -13 -16 -37 -50
-54 -78 -51 -80 -84 -130 -89 -135 -9 -9 -30 -44 -40 -68 -5 -12 -17 -25 -25
-28 -8 -4 -15 -15 -15 -25 0 -10 -3 -19 -7 -19 -5 0 -19 -17 -33 -38 -14 -20
-31 -43 -38 -50 -7 -8 -19 -28 -26 -45 -8 -18 -23 -42 -35 -54 -11 -12 -21
-28 -21 -36 0 -17 -56 -78 -64 -69 -3 3 -6 -2 -6 -11 0 -10 -7 -17 -15 -17 -8
0 -15 -7 -15 -15 0 -8 -10 -25 -22 -37 -13 -13 -23 -27 -23 -33 0 -5 -17 -11
-37 -13 -36 -3 -58 -28 -44 -50 6 -11 -30 -52 -47 -53 -7 -1 -19 -2 -27 -3 -8
0 -20 -16 -26 -35 -6 -19 -18 -39 -26 -45 -8 -6 -22 -25 -31 -43 -10 -18 -29
-45 -43 -60 -15 -15 -33 -43 -41 -61 -7 -18 -25 -42 -38 -54 -19 -16 -25 -32
-25 -60 0 -45 -47 -102 -93 -114 -29 -7 -47 -31 -31 -43 9 -6 15 -23 17 -53 1
-9 4 -15 8 -12 17 10 19 -19 3 -31 -18 -14 -18 -15 3 -29 18 -13 20 -23 16
-58 -2 -24 -7 -50 -10 -58 -4 -8 -5 -21 -4 -27 4 -24 -20 -53 -43 -53 -16 0
-27 -9 -35 -28 -7 -16 -11 -33 -10 -38 1 -5 1 -13 0 -19 -2 -15 -189 -19 -207
-4 -7 6 -21 9 -29 5 -9 -3 -14 -2 -11 3 9 14 -33 24 -109 26 -147 5 -134 1
-130 40 3 34 -7 46 -20 25 -23 -37 -91 29 -101 97 -7 48 -25 78 -39 65 -5 -4
-5 -2 -2 4 4 6 -2 30 -13 52 -11 23 -20 47 -20 55 0 8 -7 20 -15 27 -12 10
-15 47 -13 219 2 234 -3 271 -35 271 -18 1 -15 4 11 15 29 13 32 17 22 34 -6
12 -16 18 -25 15 -11 -5 -15 1 -15 19 0 35 -20 77 -37 77 -7 0 -13 9 -13 20 0
22 20 26 37 9 9 -9 14 -3 20 22 12 44 45 54 41 12 -2 -20 1 -28 12 -28 10 0
16 12 18 33 2 17 7 32 13 32 5 0 9 -4 9 -10 0 -5 11 -10 25 -10 14 0 25 -4 25
-10 0 -5 6 -10 14 -10 8 0 16 -4 18 -10 2 -5 26 -11 55 -12 51 -2 51 -3 51
-35 0 -18 -4 -31 -8 -28 -4 3 -11 -6 -14 -20 -7 -29 13 -68 31 -60 7 2 24 -6
38 -19 15 -14 43 -26 73 -30 41 -5 49 -10 62 -39 8 -17 13 -35 12 -39 -1 -5 2
-8 8 -8 5 0 10 20 10 45 l0 45 40 0 c34 0 40 -3 40 -21 0 -28 17 -15 35 27 9
21 21 34 32 34 10 0 23 10 28 23 6 13 21 23 36 25 19 2 28 10 32 27 5 29 0 35
-26 35 -16 0 -18 5 -13 34 8 41 -8 86 -30 86 -9 0 -18 -9 -21 -20 -3 -11 -12
-20 -19 -20 -16 0 -19 16 -4 25 6 3 10 17 10 31 0 17 -6 24 -19 24 -13 0 -21
9 -26 31 -7 29 -8 29 -30 15 -15 -10 -26 -11 -33 -4 -5 5 -20 7 -32 3 -17 -5
-21 -13 -17 -31 2 -13 -1 -29 -8 -34 -10 -8 -17 0 -29 30 -15 37 -19 40 -55
40 -51 0 -95 16 -85 32 5 8 2 9 -9 5 -21 -8 -21 3 -2 50 19 44 19 61 1 78 -7
8 -17 35 -21 61 -5 34 -9 43 -16 33 -6 -10 -9 -10 -9 -1 0 6 -9 12 -21 12 -19
0 -21 4 -15 43 8 50 8 70 5 121 -2 30 1 42 16 50 28 16 66 58 76 84 5 12 15
22 23 22 7 0 16 7 20 15 3 8 15 15 26 15 11 0 20 6 20 14 0 7 7 19 16 26 8 8
14 9 13 4 -1 -5 -1 -19 0 -32 1 -21 5 -22 75 -20 49 2 79 -2 90 -11 18 -15
110 -25 102 -12 -3 5 4 11 16 14 15 4 26 0 35 -13 7 -10 21 -17 30 -15 10 2
25 4 33 5 10 1 9 4 -5 9 -17 7 -16 9 13 15 43 10 128 -2 143 -20 12 -15 48
-18 87 -8 15 4 22 14 22 30 0 13 8 31 18 41 23 22 45 144 32 177 -7 18 -20 25
-67 33 -32 5 -65 12 -73 14 -9 3 -16 -4 -18 -18 -4 -26 -14 -29 -31 -9 -7 8
-28 17 -49 21 -20 3 -54 15 -74 25 -34 18 -40 18 -72 5 -31 -13 -35 -13 -30 0
4 10 0 15 -15 15 -12 0 -21 -6 -21 -15 0 -14 -47 -44 -53 -34 -1 2 -17 23 -35
46 -46 60 -44 65 20 65 33 1 40 17 25 58 -11 29 -10 33 13 51 20 15 22 21 11
28 -7 5 -16 32 -19 60 -4 41 -1 52 12 57 9 3 16 14 16 24 0 18 22 22 36 7z
m-2176 -16 c3 -1 -2 -6 -10 -11 -12 -8 -11 -10 5 -10 11 0 31 -7 43 -16 20
-13 22 -13 22 0 0 10 6 13 15 10 8 -4 22 -1 30 6 12 10 15 9 15 -8 0 -12 -8
-22 -21 -25 -15 -4 -20 -11 -15 -23 5 -13 2 -15 -14 -11 -11 3 -18 1 -14 -4 9
-15 -51 -10 -72 6 -29 22 -34 18 -27 -17 6 -32 5 -32 -13 -16 -12 10 -41 18
-75 20 -41 2 -55 6 -52 16 3 7 0 18 -6 26 -17 20 -2 46 25 46 13 0 24 5 24 11
0 9 89 8 140 0z m2805 -390 c-3 -6 -11 -8 -17 -5 -6 4 -5 9 3 15 16 10 23 4
14 -10z m-3414 -276 c26 1 36 -3 35 -14 -1 -8 13 -19 30 -24 27 -8 35 -6 53
12 19 19 32 21 144 21 68 0 127 -4 133 -8 5 -5 28 -14 52 -21 33 -9 42 -17 42
-34 0 -18 2 -19 10 -7 7 11 10 11 10 2 0 -7 5 -10 10 -7 6 4 8 10 5 15 -3 5
10 8 30 7 25 -2 35 -7 35 -19 0 -9 5 -20 10 -23 16 -10 50 5 50 20 0 8 11 22
25 31 14 9 25 23 25 31 0 10 6 13 18 8 9 -3 89 -8 177 -10 88 -3 198 -7 245
-10 78 -6 88 -4 104 14 13 15 31 21 59 21 33 0 45 -6 76 -40 20 -22 42 -40 48
-40 7 0 19 -10 27 -21 13 -20 12 -26 -12 -75 -20 -42 -33 -56 -59 -65 -18 -6
-33 -15 -33 -19 0 -5 -7 -6 -17 -3 -11 4 -14 3 -9 -5 5 -9 -12 -12 -65 -12
-62 0 -70 2 -59 15 11 13 1 15 -86 11 -55 -3 -132 -8 -172 -12 -44 -4 -77 -2
-85 4 -6 5 -36 13 -65 17 -28 4 -50 10 -47 15 9 15 -63 21 -85 8 -17 -11 -22
-11 -29 1 -6 10 -15 11 -27 5 -11 -5 -44 -9 -74 -10 -65 -2 -189 -19 -244 -33
-31 -7 -42 -6 -53 5 -10 9 -23 12 -37 8 -30 -10 -257 -11 -263 -1 -2 4 -14 5
-26 1 -11 -4 -45 -7 -74 -8 -52 -1 -53 -1 -50 29 1 21 -4 32 -18 40 -15 7 -21
22 -23 56 -3 39 1 51 22 72 13 14 27 22 30 19 3 -3 6 1 6 10 0 19 82 37 130
29 19 -3 51 -6 71 -6z m1772 -120 c5 -10 11 -41 12 -69 1 -39 -4 -54 -22 -72
-13 -13 -23 -28 -23 -35 0 -6 -6 -9 -14 -6 -8 3 -16 1 -18 -5 -7 -20 -28 2
-28 30 -1 15 -7 38 -15 52 -8 14 -14 37 -15 53 0 19 -5 27 -17 28 -14 0 -15 2
-3 6 8 3 25 14 38 24 30 23 90 20 105 -6z m-136 -127 c-3 -8 -6 -5 -6 6 -1 11
2 17 5 13 3 -3 4 -12 1 -19z m16123 -390 c0 -110 -1 -120 -17 -113 -10 4 -25
8 -33 11 -75 19 -106 24 -143 23 -23 -1 -54 3 -68 9 -15 6 -29 8 -33 5 -3 -3
-11 6 -17 21 -10 22 -10 33 4 61 9 19 13 37 8 39 -5 3 -8 17 -8 30 0 22 5 25
46 29 64 7 204 3 217 -5 7 -5 14 -1 18 8 16 40 26 -6 26 -118z m-2195 4 c6 -4
35 -10 65 -14 30 -3 69 -9 85 -13 109 -22 138 -30 142 -42 5 -12 48 -24 88
-24 11 0 79 1 150 1 141 2 170 -5 237 -57 20 -15 55 -41 77 -56 34 -23 41 -34
40 -60 0 -34 -17 -84 -18 -57 -1 8 -11 1 -22 -18 -19 -29 -25 -32 -53 -26 -17
4 -60 7 -96 6 -65 -1 -85 4 -150 40 -19 10 -59 30 -87 45 -29 14 -53 29 -53
34 0 5 -10 9 -23 9 -13 0 -27 4 -32 9 -20 20 -72 20 -161 2 -99 -20 -317 -22
-404 -2 -25 5 -85 12 -135 16 -49 3 -112 11 -138 17 -43 11 -50 10 -58 -4 -14
-25 -93 -34 -124 -14 -34 22 -42 20 -50 -11 -3 -15 -11 -31 -16 -34 -28 -17
-40 -317 -14 -339 8 -7 22 -10 31 -6 8 3 34 -3 57 -14 22 -11 49 -20 59 -20
10 0 18 -4 18 -9 0 -4 11 -6 25 -3 14 2 32 -1 40 -8 12 -10 110 -14 397 -16
210 -2 391 -7 401 -10 11 -3 178 -6 371 -5 475 1 699 -7 692 -25 -3 -8 6 -20
22 -28 34 -18 92 -72 92 -85 0 -27 -34 -91 -51 -96 -10 -4 -19 -13 -19 -21 0
-13 -20 -19 -45 -14 -38 7 -201 -2 -237 -14 -23 -8 -60 -18 -80 -21 -23 -4
-38 -13 -38 -21 0 -8 -7 -14 -15 -14 -24 0 -28 -1 -60 -14 -16 -7 -43 -11 -60
-9 -16 2 -66 8 -110 14 -111 13 -220 18 -514 21 -285 3 -292 2 -332 -62 -13
-22 -30 -40 -37 -40 -28 0 0 -18 38 -24 22 -3 40 -10 40 -15 0 -6 18 -9 40 -9
22 0 40 4 40 9 0 5 19 9 43 8 32 0 37 -2 22 -9 -18 -7 -18 -8 8 -15 16 -4 43
-3 60 2 26 8 40 5 77 -14 44 -22 47 -22 87 -7 23 9 49 14 57 11 22 -9 20 -39
-1 -36 -45 4 -53 -1 -53 -31 0 -16 -4 -30 -10 -30 -5 0 -7 6 -4 14 9 23 -68
43 -109 28 -22 -8 -50 -9 -86 -3 -48 8 -54 6 -58 -10 -7 -26 -21 -24 -49 7
-22 22 -24 23 -24 6 0 -41 -20 -44 -232 -43 -112 1 -212 2 -223 3 -11 1 -33
-1 -48 -5 -17 -5 -26 -4 -23 1 7 12 -47 24 -54 12 -3 -4 -31 -9 -62 -12 -44
-4 -58 -1 -58 9 0 7 -7 13 -15 13 -8 0 -15 -4 -15 -8 0 -14 -149 -33 -168 -22
-10 5 -12 10 -4 10 25 0 11 20 -15 20 -24 0 -26 2 -12 15 19 19 123 58 127 48
1 -5 7 -15 12 -23 9 -13 12 -13 23 0 19 23 62 39 78 29 11 -7 11 -9 -3 -9 -10
0 -18 -7 -18 -16 0 -13 3 -14 15 -4 8 6 18 9 23 6 12 -7 72 22 72 35 0 5 26 8
58 8 180 -4 362 4 373 17 6 8 16 11 21 8 6 -4 5 4 -2 16 -10 18 -9 24 1 31 11
7 11 9 1 9 -7 0 -10 4 -7 10 8 12 -12 50 -26 50 -13 0 -60 34 -97 71 -35 34
-42 36 -161 49 -92 10 -103 9 -143 -10 -42 -19 -53 -33 -78 -92 -7 -16 -16
-28 -21 -28 -5 0 -9 -5 -9 -10 0 -13 -15 -33 -58 -75 -24 -23 -39 -31 -60 -28
-38 6 -108 -11 -105 -25 2 -7 -4 -12 -12 -12 -8 0 -12 6 -9 14 4 11 -5 14 -38
14 -132 1 -199 5 -204 13 -3 5 -14 9 -24 9 -52 0 -117 73 -139 155 -5 22 -13
75 -16 117 -7 76 -6 77 23 105 64 60 137 103 218 130 94 30 81 13 134 180 24
77 51 111 102 128 57 18 102 127 108 257 0 17 45 29 135 38 53 5 102 13 109
19 21 18 523 20 551 3z m-13705 -93 c0 -17 -3 -19 -13 -10 -8 6 -18 7 -23 3
-4 -4 -2 1 5 11 18 23 31 22 31 -4z m136 -49 c-5 -38 -3 -49 9 -54 19 -7 20
-36 0 -36 -8 0 -15 9 -15 20 0 23 -18 27 -26 5 -4 -8 -15 -15 -26 -15 -15 0
-18 4 -13 18 4 9 10 29 13 45 2 15 8 27 13 27 5 0 14 12 19 26 16 42 33 18 26
-36z m34 0 c0 -5 -5 -10 -11 -10 -5 0 -7 5 -4 10 3 6 8 10 11 10 2 0 4 -4 4
-10z m11047 -32 c-3 -8 -6 -5 -6 6 -1 11 2 17 5 13 3 -3 4 -12 1 -19z m-11040
-80 c-3 -8 -6 -5 -6 6 -1 11 2 17 5 13 3 -3 4 -12 1 -19z m2551 -40 c8 -8 6
-16 -10 -30 -26 -22 -57 -23 -64 -3 -14 34 46 61 74 33z m-1328 -2 c0 -2 -8
-10 -17 -17 -16 -13 -17 -12 -4 4 13 16 21 21 21 13z m10512 -352 c9 -3 24
-17 33 -31 24 -36 15 -136 -14 -167 -12 -12 -21 -26 -21 -30 0 -4 -7 -14 -15
-22 -8 -8 -18 -20 -22 -27 -5 -7 -27 -25 -51 -41 -35 -24 -56 -30 -116 -34
-69 -4 -74 -3 -105 24 -28 26 -31 35 -32 86 -1 45 3 63 22 88 35 47 107 120
117 120 5 0 15 7 22 15 7 8 25 15 41 15 16 0 29 5 29 11 0 11 65 6 112 -7z
m-11920 -273 c10 -2 37 -59 30 -65 -3 -3 -15 -6 -27 -6 -12 0 -35 -12 -50 -26
-19 -17 -35 -24 -49 -20 -11 3 -31 6 -43 6 -15 0 -28 10 -38 30 -19 37 -19 35
8 62 20 20 32 23 92 22 39 -1 73 -2 77 -3z m11277 -144 c11 -23 22 -55 25 -72
3 -16 8 -43 11 -60 4 -18 0 -44 -9 -65 l-15 -35 -1 35 c0 20 -6 44 -14 55 -7
11 -16 38 -19 60 -3 22 -9 62 -13 89 -8 59 7 56 35 -7z m1548 -112 c0 -8 -4
-12 -9 -9 -4 3 -8 9 -8 15 0 5 4 9 8 9 5 0 9 -7 9 -15z m-127 -72 c2 -2 -2 -8
-10 -13 -8 -6 -10 -10 -4 -10 5 0 15 5 21 11 7 7 11 3 11 -15 0 -15 -5 -29
-10 -32 -15 -10 -78 -12 -72 -3 3 5 -7 14 -23 20 -21 8 -24 12 -13 19 8 5 17
7 21 4 4 -2 10 5 14 16 5 16 12 19 33 14 15 -4 29 -9 32 -11z m-142 -9 c12 -4
22 -13 22 -21 0 -8 -4 -11 -10 -8 -9 6 -14 -8 -11 -27 0 -5 -26 -8 -59 -8 -66
0 -73 8 -35 45 24 25 50 30 93 19z m42 -54 c0 -5 -4 -10 -10 -10 -5 0 -10 5
-10 10 0 6 5 10 10 10 6 0 10 -4 10 -10z m-3635 -230 c-3 -5 -11 -10 -16 -10
-6 0 -7 5 -4 10 3 6 11 10 16 10 6 0 7 -4 4 -10z m2394 -12 c4 7 18 12 32 13
46 1 210 -38 222 -53 6 -9 32 -31 57 -50 51 -37 51 -43 12 -115 -17 -33 -29
-43 -54 -47 -36 -5 -238 -19 -303 -20 -22 -1 -45 -4 -52 -9 -6 -4 -14 -3 -17
2 -7 11 22 249 34 279 10 22 11 22 36 6 19 -13 28 -14 33 -6z m-2411 -26 c-10
-2 -25 -19 -34 -38 -16 -33 -50 -50 -38 -19 4 8 10 15 15 15 5 0 9 5 9 10 0
18 35 47 50 41 12 -4 12 -6 -2 -9z m-89 -99 c-8 -10 -19 -22 -26 -28 -6 -5
-13 -19 -16 -30 -4 -18 -5 -17 -6 3 -1 14 10 33 27 47 32 29 40 31 21 8z"/>
<path d="M2027 4133 c-4 -3 -7 -17 -7 -30 0 -18 -5 -23 -22 -22 -17 1 -19 2
-5 6 9 2 17 9 17 14 0 6 -8 6 -20 -1 -11 -6 -17 -16 -14 -25 4 -9 0 -15 -10
-15 -23 0 -20 -17 5 -25 14 -5 25 -1 35 12 9 10 12 12 8 4 -5 -10 -3 -13 9 -8
9 3 18 0 21 -9 3 -8 12 -14 21 -14 22 0 20 74 -2 100 -19 21 -26 24 -36 13z"/>
<path d="M1687 4123 c-10 -9 -9 -23 2 -23 5 0 11 7 15 15 5 15 -5 20 -17 8z"/>
<path d="M4177 3173 c-8 -7 11 -33 24 -33 5 0 9 9 9 20 0 19 -20 27 -33 13z"/>
<path d="M5335 2690 c-3 -5 -1 -10 4 -10 6 0 11 5 11 10 0 6 -2 10 -4 10 -3 0
-8 -4 -11 -10z"/>
<path d="M4216 2111 c-3 -5 1 -11 9 -15 15 -6 29 7 18 18 -9 9 -21 8 -27 -3z"/>
<path d="M4276 1885 c4 -9 15 -20 25 -26 16 -8 19 -6 19 16 0 20 -5 25 -25 25
-18 0 -23 -4 -19 -15z"/>
<path d="M4330 1800 c-13 -9 -13 -11 0 -20 19 -13 34 -8 38 13 4 19 -15 22
-38 7z"/>
<path d="M4327 1743 c-12 -11 -8 -21 12 -26 24 -6 36 19 15 27 -19 7 -19 7
-27 -1z"/>
<path d="M3560 1721 c0 -22 16 -36 24 -22 8 12 -3 41 -15 41 -5 0 -9 -9 -9
-19z"/>
<path d="M4230 1249 c0 -5 5 -7 10 -4 6 3 10 8 10 11 0 2 -4 4 -10 4 -5 0 -10
-5 -10 -11z"/>
<path d="M16180 824 c-16 -8 -19 -14 -9 -14 8 0 24 7 35 15 24 18 7 18 -26 -1z"/>
<path d="M20 1822 c0 -18 5 -32 10 -32 6 0 10 8 10 18 0 14 2 15 10 2 5 -8 10
-10 10 -4 0 6 -9 19 -20 29 -20 18 -20 17 -20 -13z"/>
<path d="M107 1703 c-11 -10 -8 -83 3 -83 9 0 14 14 11 33 0 4 3 7 8 7 15 0
22 33 9 42 -16 10 -23 10 -31 1z"/>
</g>
</svg>
